<?xml version="1.0" encoding="utf-8"?>
<!-- Generator: Adobe Illustrator 26.0.1, SVG Export Plug-In . SVG Version: 6.00 Build 0)  -->
<svg version="1.1" id="Layer_1" xmlns="http://www.w3.org/2000/svg" xmlns:xlink="http://www.w3.org/1999/xlink" x="0px" y="0px"
	 viewBox="0 0 45.4 38.603" style="enable-background:new 0 0 45.4 38.603;" xml:space="preserve">
<style type="text/css">
	.st0{fill:#FFFFFF;}
	.st1{fill:#BECCE0;}
	.st2{fill:#7B98C1;}
	.st3{fill:#E3C2A0;}
	.st4{fill:#AA9278;}
</style>
<g>
	<path d="M2.774,26.187H0v6.438h1.202v-2.526h1.572c1.403,0,2.21-0.71,2.21-1.954C4.984,26.901,4.177,26.187,2.774,26.187z
		 M1.202,27.224H2.72c0.698,0,1.009,0.284,1.009,0.922s-0.31,0.914-1.009,0.914H1.202V27.224z"/>
	<path d="M7.429,26.187H6.227v6.438h1.202V26.187z"/>
	<path d="M14.256,26.187h-1.34l-1.438,2.262l-1.429-2.262H8.7l2.08,3.152l-2.236,3.286H9.96l1.492-2.392l1.507,2.392h1.405
		l-2.191-3.301L14.256,26.187z"/>
	<path d="M16.681,29.82h3.104v-1.04h-3.104v-1.556h3.54v-1.037H15.48v6.438h4.832v-1.04h-3.631V29.82z"/>
	<path d="M22.756,26.187h-1.202v6.438h4.438v-1.04h-3.236V26.187z"/>
	<path d="M29.482,30.17h1.874c-0.054,0.899-0.787,1.539-1.785,1.539c-1.57,0-1.805-1.443-1.805-2.305
		c0-1.061,0.486-2.299,1.859-2.299c0.894,0,1.451,0.393,1.611,1.135l0.017,0.085h1.245l-0.022-0.124
		c-0.245-1.357-1.282-2.134-2.843-2.134c-1.828,0-3.104,1.372-3.104,3.336c0,2.032,1.173,3.345,2.989,3.345
		c0.868,0,1.518-0.278,1.98-0.868l0.217,0.747h0.868v-3.473h-3.102V30.17z"/>
	<path d="M35.197,29.82h3.104v-1.04h-3.104v-1.556h3.542v-1.037h-4.741v6.438h4.83v-1.04h-3.631V29.82z"/>
	<path d="M44.192,26.187v4.545l-2.817-4.545h-1.297v6.438h1.199V28.08l2.826,4.545H45.4v-6.438H44.192z"/>
	<path d="M8.381,36.347H7.539v-0.336h2.089v0.336H8.786v2.203H8.381V36.347z"/>
	<path d="M11.773,37.07v0.336h-1.267v0.807h1.481v0.337h-1.883v-2.54h1.846v0.336h-1.444v0.723H11.773z"/>
	<path d="M13.697,36.299c-0.577,0-0.796,0.475-0.796,0.979c0,0.503,0.217,0.983,0.796,0.983c0.089,0.008,0.178-0.003,0.262-0.031
		c0.084-0.028,0.162-0.073,0.228-0.133c0.066-0.059,0.12-0.132,0.157-0.213c0.037-0.081,0.058-0.169,0.06-0.257h0.419
		c-0.01,0.138-0.046,0.272-0.108,0.396c-0.062,0.124-0.147,0.234-0.252,0.324c-0.104,0.09-0.226,0.159-0.357,0.203
		c-0.131,0.043-0.269,0.06-0.407,0.05c-0.74,0-1.215-0.553-1.215-1.317s0.479-1.322,1.219-1.322c0.651,0,1.058,0.406,1.119,0.914
		h-0.419c-0.019-0.17-0.104-0.325-0.236-0.432C14.035,36.335,13.866,36.283,13.697,36.299z"/>
	<path d="M15.833,36.011v1.061h1.28v-1.061h0.412v2.54h-0.406v-1.14h-1.286v1.14h-0.395v-2.54H15.833z"/>
	<path d="M18.288,36.011h0.46l1.212,1.953v-1.953h0.406v2.54h-0.453l-1.215-1.954v1.954h-0.41V36.011z"/>
	<path d="M20.982,37.278c0-0.764,0.499-1.318,1.278-1.318c0.173-0.007,0.346,0.023,0.506,0.087c0.161,0.064,0.306,0.162,0.427,0.286
		c0.121,0.124,0.214,0.272,0.274,0.435s0.084,0.336,0.073,0.509c0,0.764-0.501,1.322-1.28,1.322
		C21.481,38.6,20.982,38.042,20.982,37.278z M23.123,37.278c0-0.521-0.247-0.979-0.868-0.979s-0.868,0.458-0.868,0.979
		c0,0.521,0.247,0.983,0.868,0.983S23.123,37.801,23.123,37.278z"/>
	<path d="M24.509,36.011v2.203h1.319v0.337h-1.72v-2.54H24.509z"/>
	<path d="M26.088,37.278c0-0.764,0.499-1.318,1.277-1.318c0.779,0,1.28,0.553,1.28,1.318c0,0.764-0.499,1.322-1.28,1.322
		C26.585,38.6,26.088,38.042,26.088,37.278z M28.229,37.278c0-0.521-0.247-0.979-0.868-0.979c-0.62,0-0.867,0.458-0.867,0.979
		c0,0.521,0.247,0.983,0.867,0.983C27.981,38.261,28.229,37.801,28.229,37.278z"/>
	<path d="M30.406,36.299c-0.575,0-0.803,0.504-0.803,0.979c0,0.475,0.171,0.983,0.781,0.983c0.098,0.007,0.197-0.007,0.289-0.039
		c0.093-0.033,0.178-0.084,0.251-0.15c0.073-0.067,0.131-0.147,0.171-0.237c0.04-0.09,0.062-0.187,0.063-0.285h-0.768v-0.328h1.176
		v1.328h-0.273l-0.102-0.352c-0.089,0.134-0.212,0.241-0.356,0.312c-0.144,0.071-0.304,0.102-0.464,0.09
		c-0.755,0-1.173-0.553-1.173-1.322c0-0.768,0.477-1.318,1.221-1.318c0.67,0,1.028,0.352,1.115,0.836h-0.419
		C31.037,36.475,30.799,36.299,30.406,36.299z"/>
	<path d="M32.736,36.011v2.54h-0.401v-2.54H32.736z"/>
	<path d="M35.115,37.07v0.336h-1.264v0.807h1.479v0.337h-1.881v-2.54h1.846v0.336h-1.444v0.723H35.115z"/>
	<path d="M37.861,37.836c0,0.434-0.306,0.764-0.954,0.764c-0.649,0-1.128-0.334-1.154-0.905h0.416
		c0.028,0.341,0.236,0.571,0.727,0.571c0.414,0,0.547-0.178,0.547-0.408c0-0.323-0.256-0.369-0.729-0.486
		c-0.41-0.104-0.868-0.234-0.868-0.718c0-0.434,0.351-0.692,0.913-0.692c0.562,0,0.98,0.295,1.019,0.807H37.36
		c-0.039-0.306-0.217-0.473-0.601-0.473c-0.325,0-0.497,0.117-0.497,0.336c0,0.284,0.278,0.345,0.614,0.434
		C37.388,37.183,37.861,37.3,37.861,37.836z"/>
	<path class="st3" d="M33.469,11.554l-0.063,0.217c-0.098,0.363-0.233,0.715-0.401,1.05v0.011c0.021,0.223,0.027,0.447,0.017,0.671
		v0.011c-0.005,0.204-0.03,0.407-0.074,0.606l-0.061,0.25l0.124-0.217c0.163-0.399,0.291-0.812,0.382-1.233
		c0.056-0.377,0.085-0.757,0.087-1.137L33.469,11.554z"/>
	<path class="st3" d="M33.339,10.981v-0.013c-0.011-0.063-0.024-0.128-0.037-0.191c-0.117-0.495-0.284-0.978-0.499-1.439
		l-0.048-0.102l-0.02,0.111c-0.084,0.495-0.209,0.982-0.373,1.456c0.21,0.433,0.375,0.886,0.492,1.352l0.028,0.098l0.1-0.243
		C33.134,11.678,33.253,11.334,33.339,10.981z"/>
	<path class="st3" d="M33.473,10.06c0-0.026,0-0.054,0-0.067c-0.053-0.492-0.13-0.981-0.232-1.465
		c-0.082-0.361-0.193-0.716-0.332-1.059l-0.098-0.254l0.03,0.269c0.047,0.37,0.056,0.744,0.026,1.116
		c0.239,0.483,0.419,0.993,0.538,1.519l0.052,0.252l0.017-0.256C33.475,10.115,33.475,10.093,33.473,10.06z"/>
	<path class="st3" d="M26.721,6.637h0.028c0.654,0.194,1.29,0.442,1.902,0.742l0.046,0.022V7.354
		c0.085-0.685,0.114-1.376,0.087-2.066v-0.02h-0.02c-0.628-0.321-1.281-0.591-1.952-0.807l-0.048-0.015v0.048
		c0.035,0.713,0.022,1.427-0.039,2.138L26.721,6.637z"/>
	<path class="st3" d="M29.064,3.206l0.022,0.078c0.022,0.085,0.046,0.169,0.069,0.254c0.137,0.441,0.233,0.894,0.286,1.352v0.015
		h0.015c0.548,0.325,1.066,0.698,1.549,1.116l0.063,0.054v-0.08c-0.026-0.587-0.118-1.17-0.275-1.736V4.248
		c-0.524-0.378-1.08-0.71-1.661-0.992L29.064,3.206z"/>
	<path class="st3" d="M32.002,10.293l0.037,0.056l0.024-0.061c0.23-0.522,0.355-1.084,0.371-1.654
		c-0.26-0.447-0.563-0.867-0.905-1.255l-0.054-0.059v0.078c-0.065,0.599-0.182,1.191-0.351,1.769v0.02l0.013,0.013
		C31.458,9.538,31.748,9.903,32.002,10.293z"/>
	<path class="st3" d="M29.415,5.537v0.061c-0.002,0.669-0.06,1.337-0.173,1.997v0.024h0.019c0.488,0.292,0.951,0.626,1.382,0.998
		l0.043,0.039l0.013-0.056c0.149-0.622,0.241-1.256,0.273-1.895V6.689l-0.013-0.011c-0.461-0.419-0.96-0.794-1.49-1.12L29.415,5.537
		z"/>
	<path class="st3" d="M26.112,3.59V3.542c-0.075-0.537-0.2-1.065-0.375-1.578v-0.02h-0.022c-0.737-0.119-1.481-0.192-2.228-0.217
		c0.171,0.705,0.236,1.061,0.338,1.624c0.756,0.018,1.509,0.098,2.251,0.241L26.112,3.59z"/>
	<path class="st3" d="M25.563,1.393c-0.172-0.444-0.418-0.857-0.727-1.22C24.169,0.071,23.495,0.013,22.819,0l0,0
		c0,0,0.262,0.571,0.499,1.15C24.07,1.191,24.82,1.272,25.563,1.393z"/>
	<path class="st3" d="M23.164,3.349c-0.089-0.536-0.217-1.231-0.321-1.632c-0.684-0.042-1.371-0.012-2.05,0.089
		c0.046,0.519,0.124,1.116,0.165,1.68C21.688,3.374,22.426,3.328,23.164,3.349z"/>
	<path class="st3" d="M26.17,4.302V4.278h-0.026C25.4,4.11,24.642,4.011,23.88,3.983c0.061,0.534,0.165,1.953,0.178,2.136
		c0.714,0.056,1.422,0.175,2.115,0.356C26.212,5.751,26.211,5.026,26.17,4.302z"/>
	<path class="st3" d="M26.357,2.088l-0.061-0.015l0.02,0.059c0.183,0.529,0.314,1.075,0.39,1.63v0.022h0.022
		c0.692,0.214,1.367,0.478,2.019,0.792l0.056,0.026V4.543c-0.072-0.554-0.184-1.102-0.336-1.639V2.889L28.25,2.791
		C27.638,2.509,27.005,2.274,26.357,2.088z"/>
	<path class="st3" d="M31.554,6.59v0.013c0.353,0.383,0.667,0.8,0.939,1.244l0.061,0.095V7.831c0.014-0.435-0.004-0.87-0.054-1.302
		V6.518c-0.325-0.695-0.601-1.024-1.199-1.875l-0.108-0.156l0.045,0.182C31.414,5.295,31.52,5.939,31.554,6.59z"/>
	<path class="st3" d="M26.133,1.535h0.017c0.699,0.187,1.382,0.426,2.045,0.716l0.069,0.028L28.242,2.21
		c-0.108-0.311-0.263-0.604-0.46-0.868c-0.716-0.415-1.476-0.748-2.266-0.992l-0.109-0.03C25.707,0.687,25.951,1.096,26.133,1.535z"
		/>
	<path class="st3" d="M28.97,2.7v0.011c0.503,0.276,0.982,0.593,1.434,0.946l0.148,0.109L30.51,3.657
		c-0.011-0.028-0.158-0.343-0.176-0.38c-0.512-0.562-1.102-1.05-1.75-1.448l-0.119-0.065l0.072,0.113
		C28.656,2.045,28.89,2.529,28.97,2.7z"/>
	<path class="st3" d="M28.552,8.076l-0.02-0.013c-0.599-0.345-1.239-0.616-1.904-0.805c-0.082,0.575-0.134,1.237-0.286,1.899
		c0.596,0.204,1.176,0.452,1.735,0.742c0.145-0.415,0.375-1.326,0.477-1.802L28.552,8.076z"/>
	<path class="st3" d="M26.092,7.102c-0.647-0.206-1.317-0.332-1.995-0.373c-0.033,0.573,0.043,1.205,0.013,1.858
		c0.588,0.095,1.169,0.236,1.735,0.421c0.091-0.419,0.202-1.402,0.239-1.899L26.092,7.102z"/>
	<path class="st3" d="M30.497,9.357c-0.444-0.375-0.925-0.705-1.434-0.985c-0.217,0.651-0.362,1.274-0.564,1.765
		c0.451,0.252,0.879,0.543,1.28,0.868c0.293-0.523,0.531-1.075,0.709-1.647H30.497z"/>
	<path class="st3" d="M31.617,16.279h-0.011c-0.057,0.365-0.164,0.72-0.319,1.055l-0.102,0.217l0.163-0.195
		c0.224-0.267,0.427-0.552,0.607-0.851c0.217-0.341,0.407-0.698,0.568-1.068l0.098-0.217l-0.156,0.182
		C32.208,15.718,31.924,16.011,31.617,16.279z"/>
	<path class="st3" d="M32.651,13.49l-0.056,0.08c-0.303,0.379-0.637,0.732-0.998,1.057l-0.089,0.085v0.017
		c0.032,0.243,0.048,0.487,0.048,0.732c0,0.102,0,0.217,0,0.319v0.072l0.061-0.041c0.368-0.278,0.699-0.601,0.987-0.962v-0.015
		c0.059-0.412,0.079-0.83,0.059-1.246L32.651,13.49z"/>
	<path class="st3" d="M31.838,10.959c-0.254-0.409-0.551-0.791-0.885-1.137c-0.233,0.544-0.511,1.069-0.831,1.567
		c0.267,0.355,0.512,0.726,0.733,1.111C31.221,12.012,31.549,11.497,31.838,10.959z"/>
	<path class="st3" d="M31.413,14.165l0.045-0.041c0.399-0.35,0.763-0.739,1.084-1.161c-0.013-0.078-0.082-0.31-0.111-0.412
		c-0.09-0.351-0.202-0.696-0.336-1.033c-0.292,0.52-0.62,1.018-0.983,1.491c0.118,0.361,0.213,0.728,0.286,1.1L31.413,14.165z"/>
	<path class="st3" d="M21.099,4.165c0.063,0.651,0.171,1.107,0.254,2.025c0.909-0.072,1.503-0.091,2.08-0.113
		c-0.05-0.899-0.111-1.487-0.186-2.064C22.528,4.004,21.81,4.055,21.099,4.165z"/>
	<path class="st3" d="M18.505,4.682c0.048,0.651,0.08,1.085,0.167,2.003c0.681-0.185,1.372-0.33,2.069-0.434
		c-0.024-0.434-0.184-1.519-0.217-1.999C19.842,4.346,19.167,4.489,18.505,4.682z"/>
	<path class="st4" d="M31.113,16.539c-0.085,0.056-0.651,0.464-1.019,0.671h-0.013v0.015c-0.017,0.135-0.033,0.855-0.054,1.007
		l-0.011,0.074l0.065-0.041c0.291-0.187,0.564-0.4,0.816-0.636v-0.011c0.133-0.34,0.222-0.695,0.265-1.057v-0.072L31.113,16.539z"/>
	<path class="st4" d="M29.671,16.975h0.02v-0.019c-0.015-0.31-0.035-0.734-0.083-1.124V15.78l-0.048,0.028
		c-0.371,0.217-0.757,0.405-1.156,0.564H28.38v0.024c0.015,0.128,0.026,0.232,0.037,0.323c0.026,0.252,0.045,0.419,0.074,0.758
		v0.048l0.046-0.019C28.926,17.353,29.305,17.176,29.671,16.975z"/>
	<path class="st4" d="M26.697,20.531c0-0.143-0.026-0.297-0.03-0.365v-0.039h-0.039c-0.377,0.087-0.796,0.178-1.215,0.241h-0.037
		V20.4c0,0.065,0.02,0.18,0.037,0.365c0.024,0.243,0.05,0.519,0.054,0.599v0.041h0.039c0.405-0.085,0.804-0.196,1.195-0.332h0.024
		v-0.024C26.73,20.952,26.712,20.737,26.697,20.531z"/>
	<path class="st4" d="M28.547,17.917h-0.022v0.024c0.017,0.375,0.022,0.742,0,1.085V19.1l0.052-0.024
		c0.363-0.15,0.713-0.33,1.045-0.538h0.015v-0.015c0.039-0.36,0.059-0.723,0.061-1.085v-0.074l-0.052,0.028
		C29.292,17.59,28.924,17.765,28.547,17.917z"/>
	<path class="st4" d="M29.291,19.146c-0.24,0.147-0.489,0.281-0.744,0.401h-0.02v0.02c0,0.072,0,0.145-0.011,0.217
		c0,0.097-0.006,0.194-0.017,0.291v0.069l0.063-0.037c0.37-0.221,0.716-0.478,1.035-0.768c0.009-0.036,0.017-0.088,0.026-0.156
		c0-0.05,0.015-0.109,0.026-0.174l0.013-0.072l-0.065,0.037L29.291,19.146z"/>
	<path class="st4" d="M29.985,15.571l-0.02,0.011v0.022c0.046,0.384,0.076,0.768,0.085,1.15v0.059l0.054-0.03
		c0.583-0.336,0.753-0.447,1.045-0.651h0.015v-0.015c0.011-0.369-0.012-0.738-0.067-1.103v-0.05l-0.046,0.026
		C30.799,15.133,30.365,15.369,29.985,15.571z"/>
	<path class="st4" d="M30.031,18.666H30.02c-0.011,0.043-0.022,0.091-0.032,0.141c-0.011,0.05-0.022,0.104-0.035,0.154l-0.026,0.104
		l0.171-0.148c0.314-0.295,0.587-0.633,0.809-1.003C30.629,18.181,30.336,18.432,30.031,18.666z"/>
	<path class="st4" d="M28.179,19.194H28.2v-0.022c0-0.345-0.011-0.669-0.03-1.048v-0.048l-0.046,0.017
		c-0.406,0.141-0.742,0.263-1.184,0.378h-0.03v0.03c0.045,0.369,0.076,0.731,0.1,1.044v0.041h0.041
		C27.437,19.488,27.815,19.357,28.179,19.194z"/>
	<path class="st4" d="M27.092,20.018h-0.028v0.028c0,0.065,0,0.18,0.02,0.302c0.015,0.18,0.028,0.384,0.03,0.475v0.048l0.048-0.017
		c0.358-0.142,0.704-0.311,1.035-0.508h0.015v-0.017c0-0.098,0-0.237,0-0.371V19.68l-0.05,0.02
		C27.895,19.801,27.42,19.936,27.092,20.018z"/>
	<path class="st4" d="M31,14.471c-0.072-0.284-0.2-0.755-0.312-1.15c-0.345,0.269-0.707,0.516-1.084,0.738
		c0.095,0.349,0.197,0.651,0.295,1.085C30.278,14.939,30.645,14.715,31,14.471z"/>
	<path class="st1" d="M11.929,10.017L11.992,9.8c0.098-0.363,0.233-0.715,0.403-1.051c-0.021-0.223-0.027-0.447-0.017-0.671
		c0.003-0.204,0.028-0.407,0.074-0.606l0.059-0.25L12.387,7.44c-0.162,0.399-0.289,0.812-0.379,1.233
		C11.949,9.05,11.92,9.43,11.92,9.811L11.929,10.017z"/>
	<path class="st1" d="M12.061,10.59v0.013c0,0.063,0.024,0.128,0.037,0.191c0.117,0.495,0.284,0.978,0.499,1.439l0.048,0.102
		l0.02-0.111c0.084-0.495,0.209-0.982,0.373-1.456c-0.209-0.432-0.374-0.885-0.492-1.35L12.517,9.32l-0.1,0.243
		C12.266,9.893,12.147,10.237,12.061,10.59z"/>
	<path class="st1" d="M11.929,11.504c0,0.026,0,0.054,0,0.067c0.053,0.492,0.13,0.981,0.232,1.465
		c0.081,0.366,0.192,0.724,0.332,1.072l0.1,0.254l-0.033-0.269c-0.046-0.37-0.055-0.744-0.026-1.116v-0.015
		c-0.24-0.483-0.421-0.993-0.54-1.519l-0.052-0.252l-0.013,0.245C11.929,11.436,11.929,11.477,11.929,11.504z"/>
	<path class="st1" d="M18.679,14.933h-0.028c-0.653-0.188-1.289-0.43-1.902-0.723l-0.046-0.022v0.048
		c-0.084,0.685-0.113,1.376-0.087,2.066v0.019h0.02c0.628,0.321,1.281,0.591,1.952,0.807l0.048,0.015v-0.048
		c-0.034-0.713-0.021-1.427,0.041-2.138L18.679,14.933z"/>
	<path class="st1" d="M16.341,18.365l-0.019-0.078l-0.072-0.254c-0.137-0.441-0.233-0.893-0.286-1.352v-0.015h-0.015
		c-0.548-0.326-1.066-0.699-1.549-1.116l-0.063-0.054v0.08c0.026,0.587,0.118,1.17,0.276,1.736c0.521,0.385,1.075,0.723,1.655,1.011
		L16.341,18.365z"/>
	<path class="st1" d="M13.398,11.287l-0.037-0.056l-0.024,0.061c-0.229,0.522-0.354,1.084-0.371,1.654
		c0.265,0.442,0.571,0.857,0.915,1.239l0.054,0.059v-0.078c0.063-0.599,0.18-1.191,0.349-1.769v-0.02l-0.011-0.004
		C13.949,12.037,13.656,11.674,13.398,11.287z"/>
	<path class="st1" d="M15.985,16.033v-0.061c0.002-0.669,0.06-1.337,0.174-1.997v-0.024h-0.02c-0.488-0.292-0.951-0.627-1.382-0.998
		l-0.043-0.039l-0.013,0.056c-0.149,0.622-0.241,1.256-0.273,1.895v0.015c0.461,0.418,0.96,0.793,1.49,1.12L15.985,16.033z"/>
	<path class="st1" d="M19.288,17.98v0.048c0.075,0.537,0.2,1.065,0.375,1.578v0.02h0.022c0.737,0.119,1.481,0.192,2.228,0.217
		c-0.169-0.705-0.236-1.061-0.338-1.624c-0.755-0.018-1.507-0.098-2.249-0.241L19.288,17.98z"/>
	<path class="st1" d="M19.837,20.186c0.173,0.444,0.419,0.856,0.727,1.22c0.668,0.103,1.342,0.161,2.017,0.174
		c0,0-0.262-0.571-0.499-1.15C21.33,20.388,20.58,20.307,19.837,20.186z"/>
	<path class="st1" d="M22.236,18.232c0.089,0.536,0.217,1.231,0.321,1.632c0.684,0.042,1.371,0.012,2.05-0.089
		c-0.046-0.519-0.124-1.116-0.165-1.68C23.712,18.208,22.974,18.253,22.236,18.232z"/>
	<path class="st1" d="M19.23,17.268v0.024h0.026c0.744,0.168,1.502,0.267,2.264,0.295c-0.061-0.534-0.165-1.953-0.178-2.136
		c-0.714-0.056-1.422-0.175-2.115-0.356C19.188,15.819,19.189,16.545,19.23,17.268z"/>
	<path class="st1" d="M19.043,19.482l0.061,0.015l-0.017-0.059c-0.183-0.529-0.313-1.075-0.388-1.63v-0.022h-0.022
		c-0.691-0.213-1.366-0.478-2.017-0.792l-0.059-0.026v0.059c0.072,0.554,0.186,1.102,0.34,1.639l0.217,0.098
		C17.767,19.051,18.398,19.291,19.043,19.482z"/>
	<path class="st1" d="M13.846,14.976c-0.352-0.384-0.666-0.8-0.939-1.244l-0.061-0.095v0.111c-0.014,0.435,0.004,0.87,0.056,1.302
		c0.314,0.69,0.592,1.011,1.195,1.88l0.111,0.156l-0.048-0.182C13.985,16.275,13.879,15.628,13.846,14.976z"/>
	<path class="st1" d="M19.269,20.036h-0.02c-0.701-0.188-1.387-0.428-2.052-0.718l-0.063-0.026l0.022,0.069
		c0.108,0.311,0.263,0.604,0.46,0.868c0.716,0.415,1.476,0.748,2.267,0.992l0.108,0.03C19.692,20.884,19.449,20.474,19.269,20.036z"
		/>
	<path class="st1" d="M16.43,18.87c-0.503-0.276-0.982-0.593-1.434-0.946l-0.148-0.108l0.041,0.108c0,0.028,0.16,0.343,0.176,0.38
		c0.509,0.562,1.095,1.049,1.739,1.448l0.119,0.065l-0.072-0.113C16.744,19.534,16.51,19.042,16.43,18.87z"/>
	<path class="st1" d="M16.848,13.494h0.02c0.599,0.346,1.239,0.618,1.904,0.807c0.085-0.577,0.137-1.237,0.286-1.899
		c-0.596-0.205-1.176-0.453-1.735-0.742c-0.145,0.415-0.375,1.326-0.477,1.802L16.848,13.494z"/>
	<path class="st1" d="M19.304,14.469c0.647,0.208,1.317,0.336,1.995,0.38c0.035-0.573-0.043-1.205-0.013-1.858
		c-0.588-0.095-1.169-0.236-1.735-0.421c-0.091,0.419-0.2,1.402-0.239,1.899H19.304z"/>
	<path class="st1" d="M14.903,12.213c0.442,0.375,0.92,0.705,1.427,0.985c0.217-0.651,0.36-1.274,0.562-1.765
		c-0.45-0.253-0.878-0.543-1.28-0.868C15.32,11.089,15.082,11.641,14.903,12.213z"/>
	<path class="st1" d="M13.786,5.298V5.287c0.058-0.364,0.165-0.719,0.319-1.055l0.102-0.228L14.044,4.2
		c-0.22,0.265-0.42,0.546-0.596,0.842C13.23,5.383,13.04,5.74,12.879,6.11l-0.098,0.217l0.156-0.182
		C13.196,5.839,13.48,5.556,13.786,5.298z"/>
	<path class="st1" d="M12.749,8.081L12.805,8c0.304-0.378,0.638-0.73,0.998-1.055l0.089-0.085V6.844
		c-0.032-0.243-0.048-0.487-0.048-0.731c0-0.102,0-0.217,0-0.319V5.721l-0.059,0.041c-0.365,0.28-0.694,0.604-0.978,0.966h-0.011
		c-0.059,0.412-0.079,0.83-0.059,1.246L12.749,8.081z"/>
	<path class="st1" d="M13.565,10.611c0.253,0.409,0.549,0.791,0.883,1.137c0.233-0.544,0.511-1.069,0.831-1.567
		c-0.267-0.354-0.512-0.725-0.731-1.111C14.18,9.558,13.851,10.073,13.565,10.611z"/>
	<path class="st1" d="M13.987,7.406l-0.045,0.041c-0.4,0.349-0.763,0.738-1.084,1.161c0.013,0.078,0.082,0.31,0.111,0.412
		c0.09,0.351,0.202,0.696,0.336,1.033c0.293-0.519,0.621-1.017,0.982-1.491c-0.12-0.36-0.218-0.727-0.295-1.098L13.987,7.406z"/>
	<path class="st1" d="M24.292,17.405c-0.063-0.651-0.171-1.107-0.254-2.025c-0.909,0.072-1.503,0.091-2.08,0.113
		c0.05,0.899,0.113,1.487,0.187,2.064C22.863,17.566,23.582,17.515,24.292,17.405z"/>
	<path class="st1" d="M26.895,16.889c-0.045-0.651-0.08-1.085-0.167-2.003c-0.681,0.185-1.372,0.33-2.069,0.434
		c0.026,0.434,0.184,1.519,0.217,1.999C25.558,17.225,26.233,17.081,26.895,16.889z"/>
	<path class="st2" d="M14.289,5.031c0.082-0.056,0.651-0.464,1.017-0.671h0.015v-0.02c0.017-0.135,0.033-0.855,0.054-1.007V3.26
		L15.31,3.301c-0.29,0.187-0.562,0.4-0.813,0.636v0.011c-0.131,0.336-0.22,0.686-0.265,1.044v0.072L14.289,5.031z"/>
	<path class="st2" d="M15.729,4.595h-0.02v0.02c0.015,0.31,0.035,0.734,0.082,1.124v0.052l0.048-0.028
		c0.374-0.213,0.763-0.398,1.165-0.553h0.024V5.185c-0.015-0.128-0.026-0.232-0.035-0.323c-0.028-0.252-0.048-0.419-0.076-0.757
		V4.057l-0.043,0.02C16.482,4.224,16.099,4.397,15.729,4.595z"/>
	<path class="st2" d="M18.703,1.04c0,0.143,0.026,0.297,0.03,0.365v0.039h0.039c0.377-0.087,0.796-0.178,1.215-0.241h0.035V1.161
		c0-0.065-0.022-0.18-0.039-0.365c-0.028-0.243-0.05-0.519-0.054-0.599V0.156h-0.039c-0.406,0.089-0.806,0.204-1.197,0.343h-0.024
		v0.024C18.67,0.619,18.688,0.833,18.703,1.04z"/>
	<path class="st2" d="M16.853,3.653h0.022V3.629c-0.02-0.375-0.022-0.742,0-1.085V2.474l-0.052,0.024
		c-0.366,0.15-0.719,0.331-1.054,0.54h-0.015v0.015c-0.039,0.36-0.059,0.723-0.059,1.085v0.056l0.05-0.028
		C16.103,3.973,16.473,3.801,16.853,3.653z"/>
	<path class="st2" d="M16.109,2.424c0.241-0.148,0.49-0.282,0.746-0.402h0.017V1.995c0-0.072,0-0.145,0-0.217
		c0-0.097,0.006-0.194,0.017-0.291V1.417l-0.063,0.037c-0.37,0.221-0.716,0.478-1.035,0.768v0.011c0,0.037-0.015,0.089-0.026,0.156
		c-0.011,0.067-0.015,0.109-0.026,0.174v0.072l0.063-0.037L16.109,2.424z"/>
	<path class="st2" d="M15.415,5.999l0.022-0.011V5.967c-0.046-0.384-0.076-0.768-0.085-1.15V4.758l-0.054,0.03
		c-0.583,0.336-0.753,0.447-1.045,0.651h-0.015v0.015c-0.01,0.369,0.013,0.738,0.069,1.103v0.05l0.043-0.026
		C14.595,6.438,15.033,6.201,15.415,5.999z"/>
	<path class="st2" d="M15.369,2.913V2.902c0-0.043,0.022-0.091,0.033-0.141c0.011-0.05,0.022-0.104,0.035-0.154l0.028-0.104
		L15.291,2.65c-0.314,0.295-0.586,0.633-0.807,1.003C14.765,3.39,15.06,3.143,15.369,2.913z"/>
	<path class="st2" d="M17.221,2.388H17.2v0.022c0,0.345,0,0.669,0.032,1.048v0.048l0.046-0.017c0.406-0.141,0.742-0.263,1.184-0.378
		h0.03V3.08c-0.046-0.369-0.076-0.731-0.1-1.044v-0.05h-0.039C17.965,2.087,17.586,2.221,17.221,2.388z"/>
	<path class="st2" d="M18.308,1.552h0.028V1.519c0-0.065,0-0.18-0.019-0.302c-0.013-0.18-0.028-0.384-0.03-0.475v-0.05L18.238,0.71
		c-0.355,0.144-0.698,0.316-1.026,0.514l-0.015,0.011v0.017c0,0.098,0,0.237,0,0.371c0,0.078,0,0.154,0,0.217v0.048l0.05-0.017
		C17.505,1.769,17.98,1.634,18.308,1.552z"/>
	<path class="st2" d="M14.399,7.1c0.072,0.284,0.202,0.755,0.314,1.15c0.345-0.27,0.707-0.516,1.085-0.738
		c-0.095-0.349-0.197-0.662-0.295-1.085C15.124,6.631,14.755,6.856,14.399,7.1z"/>
</g>
</svg>
